<svg width="377" height="70" xmlns="http://www.w3.org/2000/svg">
  <path fill="#009c30" d="m59.998 52.502-7.497-4.376v-8.747l7.497-4.376zm0-17.499-7.497-4.376v-8.752l7.497-4.37zm-15 8.747-7.496-4.37v-8.753l7.497-4.376 7.502 4.376v8.752zm0-17.499-7.496-4.376v-8.746l7.497-4.376 7.502 4.376v8.746zm-14.993 8.752-7.503-4.376v-8.752l7.503-4.37 7.497 4.37v8.752zm0-17.498-7.503-4.376V4.377L30.005 0l7.497 4.377v8.752zm14.994 43.75-7.497-4.377v-8.752l7.497-4.376 7.502 4.376v8.752zm0 0"/>
  <path fill="#0f2368" d="M270.757 60.716c-2.499-.454-2.947-.819-2.947-1.62 0-1.124 1.13-1.997 2.57-1.997 1.728 0 3.121 1.22 3.39 2.971l.019.156h.825l-.108-4.101h-.765l-.46.944c-1.029-.777-1.902-1.1-2.966-1.1-2.248 0-3.946 1.752-3.946 4.071 0 2.547 1.166 3.647 4.454 4.203 2.38.365 2.816.909 2.816 1.842 0 1.279-1.154 2.248-2.69 2.248-1.997 0-3.127-1.214-3.904-4.197l-.036-.138h-.77l.1 5.112h.622l.7-.933c1.147.909 2.056 1.255 3.287 1.255 2.446 0 4.227-1.9 4.227-4.52 0-2.432-1.28-3.646-4.418-4.196m-7.27-4.717c-1.356 0-2.409.837-3.257 2.613v-2.296h-5.34v1.004h2.123v10.791h-2.122v.999h7.425v-.999h-2.086v-2.756c0-3.652.31-5.416 1.237-6.988.281-.479.58-.7.694-.7.024 0 .102 0 .131.27.071 1.267.586 1.882 1.578 1.882 1.034 0 1.764-.74 1.764-1.8 0-1.17-.903-2.02-2.146-2.02m-11.006.317h-5.333v1.004h2.116v10.791h-2.116v.999h7.42v-.999h-2.087zm-3.659-6.23c0 1.095.873 1.956 1.985 1.956 1.064 0 1.96-.897 1.96-1.955 0-1.118-.89-1.991-2.02-1.991-1.112 0-1.925.837-1.925 1.99m-7.204 12.71v.443c0 1.566-.131 2.48-.424 3.043-.479.89-1.226 1.387-2.11 1.387-1.113 0-1.746-.682-1.746-1.871 0-1.92 1.32-2.846 4.28-3.001m4.52 4.878c-.556.466-.58.466-.795.466-.485 0-.515 0-.515-2.72v-4.239c0-2.774-.012-3-.77-3.796-.796-.855-2.272-1.387-3.869-1.387-2.792 0-5.147 1.549-5.147 3.378 0 .867.664 1.548 1.507 1.548.878 0 1.512-.651 1.512-1.548 0-.43-.173-.723-.478-1.094-.12-.143-.12-.167-.12-.233 0-.46 1.154-1.142 2.188-1.142.676 0 1.262.203 1.573.544.322.353.394.598.394 2.433v2.003c-4.818.131-7.46 1.674-7.46 4.352 0 1.907 1.416 3.193 3.532 3.193 1.62 0 3.055-.778 4.012-2.153.317 1.393 1.267 2.152 2.72 2.152.915 0 1.548-.275 2.337-.998l.132-.12-.61-.753zm-12.178-16.428c.76 0 1.453-.766 1.453-1.603 0-1.273-1.334-2.307-2.972-2.307-1.285 0-2.546.64-3.461 1.745-1.01 1.244-1.37 2.511-1.37 4.86v2.374h-2.121v1.004h2.122v10.791h-2.122v.999h7.927v-.999h-2.59v-10.79h2.876v-1.005h-2.876v-5.661c0-.592.096-1.196.233-1.471.252-.538.724-.843 1.286-.843.233 0 .418.03.586.09-.323.389-.485.813-.485 1.273 0 .88.652 1.543 1.513 1.543m-25.647 10.067h-5.392l2.714-7.993zm16.602-10.068c.759 0 1.452-.765 1.452-1.602 0-1.273-1.333-2.307-2.965-2.307-1.291 0-2.553.64-3.467 1.745-1.01 1.238-1.37 2.511-1.37 4.86v2.374h-2.122v1.004h2.123v10.791h-3.982l-6.827-20.457h-1.214l-7.144 20.457h-1.572v.999h5.494v-.999h-2.684l1.937-5.793h6.086l1.93 5.793h-2.678v.999h16.459v-.999h-2.589v-10.79h2.876v-1.005h-2.876v-5.661c0-.592.095-1.196.233-1.471.257-.538.724-.843 1.286-.843.233 0 .424.03.585.09-.316.389-.484.813-.484 1.273 0 .88.652 1.543 1.513 1.543m-46.213 11.55v.442c0 1.566-.125 2.48-.424 3.043-.472.89-1.226 1.387-2.11 1.387-1.112 0-1.746-.682-1.746-1.871 0-1.92 1.321-2.846 4.28-3.001m10.456-15.143h-5.338v1.004h2.122v19.453h-2.122v.013l-.449-.562-.143.114c-.556.466-.58.466-.801.466-.484 0-.508 0-.508-2.72v-4.239c0-2.773-.019-3-.777-3.796-.79-.855-2.272-1.387-3.868-1.387-2.792 0-5.148 1.549-5.148 3.378 0 .867.664 1.548 1.513 1.548.879 0 1.512-.651 1.512-1.548 0-.43-.179-.723-.484-1.094-.113-.143-.113-.167-.113-.233 0-.46 1.147-1.142 2.182-1.142.675 0 1.261.203 1.572.544.323.353.395.598.395 2.433v2.003c-4.819.131-7.461 1.674-7.461 4.352 0 1.907 1.416 3.192 3.533 3.192 1.62 0 3.055-.777 4.011-2.152.317 1.393 1.274 2.152 2.726 2.152.897 0 1.53-.269 2.308-.974v.652h7.425v-.999h-2.086zm-20.29 8.345c-1.357 0-2.41.837-3.264 2.613v-2.296h-5.333v1.004h2.123v10.791h-2.123v.999h7.42v-.999h-2.087v-2.756c0-3.653.317-5.416 1.237-6.988.293-.479.586-.7.7-.7.024 0 .101 0 .131.27.066 1.266.586 1.882 1.579 1.882 1.034 0 1.763-.74 1.763-1.8 0-1.17-.902-2.02-2.146-2.02m-11.227.317h-5.333v1.004h2.117v4.239c0 3.36-.132 4.358-.7 5.315-.538.896-1.56 1.458-2.654 1.458-.61 0-1.136-.173-1.387-.454-.389-.383-.455-.95-.455-4.011v-7.551h-5.332v1.004h2.116v6.547c0 2.714.197 3.527 1.04 4.37.801.771 2.033 1.195 3.48 1.195 1.662 0 2.995-.58 3.892-1.668v1.346h5.302v-.999h-2.086zm-25.42-7.658h1.082c2.272 0 3.067.161 3.868.783.873.658 1.351 1.901 1.351 3.485 0 1.543-.514 2.864-1.345 3.456-.807.568-1.811.76-4.005.76h-.95zm12.005 19.154c-.616.275-.88.33-1.124.33-.317 0-1.274 0-1.274-2.279v-1.518c0-3.462-1.644-5.691-4.77-6.528 3.383-.544 5.434-2.452 5.434-5.142 0-2.409-1.644-4.149-4.502-4.764-1.034-.234-1.853-.257-4.657-.257h-7.49v1.004h2.624v19.453h-2.625v.999h9.004v-.999h-2.625v-9.906h.795c3.76 0 4.592.813 4.681 4.562.066 2.475.168 3.126.652 4.089.693 1.446 2.236 2.385 3.928 2.385.765 0 1.524-.173 2.32-.526l.16-.065-.352-.915zm-34.418.52c-.657 0-1.29-.4-1.638-1.04-.328-.622-.388-1.285-.388-4.149 0-3.198.107-4.442.448-5.093.353-.58.957-.95 1.549-.95 1.853 0 3.198 2.367 3.198 5.63 0 3.193-1.363 5.602-3.169 5.602m6.445-20.678h-5.333v1.004h2.117v9.451c-.999-1.452-2.129-2.104-3.605-2.104-2.93 0-5.405 3.05-5.405 6.66 0 3.73 2.493 6.767 5.56 6.767 1.441 0 2.667-.759 3.45-2.11v1.788h5.302v-.999h-2.086zm-14.796 13.624c0-2.415-.174-3.157-.933-3.982-.693-.765-2.05-1.297-3.294-1.297-1.662 0-2.84.496-3.862 1.638v-1.321h-5.339v1.004h2.123v10.791h-2.123v.999h7.234v-.999h-1.895v-3.58c0-3.761.173-5.172.76-6.027.454-.663 1.374-1.184 2.092-1.184.598 0 1.082.222 1.435.658.466.586.585 1.71.585 5.446v4.687h-1.925v.999h7.234v-.999h-2.092zM82.5 62.797v.442c0 1.566-.126 2.48-.419 3.043-.478.89-1.226 1.387-2.116 1.387-1.106 0-1.746-.682-1.746-1.871 0-1.92 1.321-2.846 4.28-3.001m4.526 4.878c-.556.466-.58.466-.801.466-.478 0-.508 0-.508-2.72v-4.239c0-2.774-.018-3-.777-3.796-.79-.855-2.272-1.387-3.868-1.387-2.792 0-5.148 1.548-5.148 3.378 0 .867.664 1.548 1.513 1.548.879 0 1.512-.651 1.512-1.548 0-.43-.179-.723-.484-1.094-.113-.144-.113-.168-.113-.233 0-.46 1.147-1.142 2.188-1.142.67 0 1.255.203 1.566.544.323.353.394.598.394 2.433v2.003c-4.812.131-7.46 1.674-7.46 4.352 0 1.907 1.422 3.192 3.539 3.192 1.614 0 3.049-.777 4.005-2.152.323 1.393 1.274 2.152 2.726 2.152.915 0 1.543-.275 2.338-.998l.125-.12-.604-.753zm288.854-31.219-.03.15c-.203 1.064-.664 1.554-1.459 1.554-.902 0-1.333-.293-1.333-1.96v-8.795h3.163v-1.004h-3.163v-4.837h-.819l-.048.12c-.927 2.415-2.14 3.85-4.185 4.926l-.095.054v.741h1.93v7.814c0 1.925.055 2.367.67 3.085.628.789 1.608 1.207 2.834 1.207 1.99 0 3.204-.98 3.503-2.84l.036-.215zm-10.157-5.093c0-2.416-.174-3.163-.933-3.988-.693-.76-2.05-1.291-3.3-1.291-1.656 0-2.84.496-3.862 1.632v-1.315h-5.333v1.004h2.117v10.79h-2.117v1h7.228v-1h-1.895v-3.58c0-3.767.18-5.171.76-6.026.46-.664 1.38-1.184 2.092-1.184.603 0 1.088.221 1.435.657.472.586.591 1.704.591 5.447v4.687h-1.93v.998h7.233v-.998h-2.086zm-19.848-4.18c.956 0 1.62.395 1.883 1.113.197.52.233.759.239 2.654h-4.532v-.538c0-2.355.652-3.228 2.41-3.228m5.793 4.77-.013-.197c-.233-3.443-2.475-5.673-5.715-5.673-3.27 0-6.134 3.144-6.134 6.731 0 3.504 2.953 6.696 6.194 6.696 2.726 0 4.908-1.865 5.428-4.64l.041-.22h-1.124l-.035.137c-.574 2.272-2.093 3.629-4.06 3.629-1.046 0-1.889-.46-2.367-1.297-.359-.634-.419-1.244-.419-4.37v-.796zm-13.966-1.357c0-1.763-.173-2.612-.67-3.24-.603-.771-1.828-1.273-3.114-1.273-1.883 0-3.294.622-4.316 1.9-.58-1.296-1.71-1.9-3.527-1.9-1.573 0-2.822.514-3.898 1.608v-1.291h-5.333v1.004h2.122v10.79h-2.122v1h7.234v-1h-1.901v-3.233c0-3.695.131-5.214.526-6.02.382-.826 1.41-1.441 2.391-1.441 1.214 0 1.614.448 1.614 3.096v7.599h-1.895v.998h7.013v-.998h-1.901v-5.919c0-1.154.035-1.44.065-1.722.06-.651.215-1.201.484-1.667.479-.903 1.435-1.483 2.433-1.483.46 0 .885.143 1.13.389.371.37.449.651.449 2.803v7.599h-1.895v.998h7.233v-.998h-2.122zm-23.267.766c0-2.416-.174-3.163-.933-3.988-.693-.76-2.05-1.291-3.3-1.291-1.656 0-2.833.496-3.862 1.632v-1.315h-5.332v1.004h2.116v10.79h-2.116v1h7.233v-1h-1.9v-3.58c0-3.767.179-5.171.758-6.026.46-.664 1.381-1.184 2.093-1.184.604 0 1.088.221 1.435.657.472.586.591 1.704.591 5.447v4.687h-1.924v.998h7.227v-.998h-2.086zm-18.372 5.739c-.406.873-1.255 1.315-2.522 1.315-1.142 0-1.848-.293-2.344-.969-.472-.645-.502-.95-.502-4.669 0-3.276.03-3.718.299-4.28.412-.885 1.243-1.315 2.547-1.315 1.124 0 1.817.287 2.32.962.472.652.501.95.501 4.633 0 3.277-.03 3.76-.299 4.323m-2.522-11.018c-3.635 0-6.6 3.007-6.6 6.695 0 3.713 2.965 6.732 6.6 6.732 3.622 0 6.576-3.019 6.576-6.732 0-3.688-2.954-6.695-6.576-6.695m-8.848 0c-1.357 0-2.41.837-3.258 2.606V26.4h-5.333v1.005h2.116v10.79h-2.116v1h7.419v-1h-2.086V35.44c0-3.653.31-5.417 1.237-6.989.287-.478.586-.7.694-.7.024 0 .102 0 .131.27.072 1.267.586 1.877 1.578 1.877 1.04 0 1.764-.735 1.764-1.794 0-1.171-.903-2.02-2.146-2.02m-11.006.317h-9.918v1.004h2.32l-3.02 7.808-3.049-7.808h2.188v-1.004h-7.072v1.004h1.393l4.836 12.106h1.357l4.616-12.106h3.132v10.79h-2.116v1h7.42v-1h-2.087zm-1.668-4.28a1.98 1.98 0 0 0 1.955-1.956c0-1.112-.885-1.985-2.021-1.985-1.118 0-1.925.837-1.925 1.985 0 1.094.873 1.955 1.99 1.955m-23.906 16.076h-1.896v-3.581c0-3.767.18-5.171.76-6.026.46-.664 1.38-1.184 2.092-1.184.604 0 1.088.221 1.435.657.472.586.592 1.704.592 5.447v4.687h-1.925v.998h7.227v-.998h-2.086v-6.833c0-2.416-.173-3.157-.933-3.988-.693-.76-2.05-1.291-3.3-1.291-1.656 0-2.84.496-3.862 1.632v-1.315h-5.332v1.004h2.116v10.79h-2.116v1h7.228zm-8.167-5.949h-.753l-.036.138c-.789 2.672-1.004 3.288-1.686 4.274-.908 1.333-1.428 1.537-3.987 1.537h-3.832v-9.368h.825c2.792 0 3.174.448 3.425 4l.013.173h.765v-9.064h-.777v.18c-.065 2.81-.55 3.366-1.967 3.617-.359.06-.693.09-2.284.12v-9.118h2.254c1.566 0 1.943 0 2.337.065 1.178.186 2.003.634 2.601 1.417.646.825 1.016 1.752 1.423 3.533l.03.144h.753l-.233-6.158h-15.544v.998h2.625v19.46h-2.625v.998h16.04zm-28.343 7.013c.915 0 1.608-.694 1.668-1.638.293.305.424.687.424 1.201 0 1.43-.849 2.757-2.678 4.185l-.15.114.742.92.143-.113c2.093-1.638 3.199-3.527 3.199-5.458 0-1.865-1.166-3.217-2.774-3.217-1.411 0-2.433.915-2.433 2.177 0 1.076.765 1.829 1.859 1.829m-11.066-8.31v-.538c0-2.355.652-3.228 2.41-3.228.95 0 1.62.388 1.877 1.112.203.52.239.759.245 2.654zm2.535 8.561c2.726 0 4.908-1.865 5.428-4.64l.042-.22h-1.124l-.036.143c-.574 2.266-2.098 3.623-4.06 3.623-1.051 0-1.888-.466-2.367-1.297-.364-.634-.418-1.244-.418-4.37v-.796h8.202l-.018-.197c-.227-3.443-2.47-5.673-5.715-5.673-3.265 0-6.128 3.144-6.128 6.731 0 3.504 2.953 6.696 6.193 6.696m-8.44-13.427c-1.357 0-2.41.837-3.259 2.606V26.4h-5.332v1.005h2.116v10.79h-2.116v1h7.419v-1h-2.087V35.44c0-3.653.311-5.417 1.238-6.989.287-.478.58-.7.693-.7.025 0 .101 0 .132.27.065 1.267.586 1.877 1.578 1.877 1.034 0 1.764-.735 1.764-1.794 0-1.171-.903-2.02-2.146-2.02m-31.26 9.135c0 1.925.053 2.367.669 3.084.627.79 1.608 1.208 2.833 1.208 1.997 0 3.205-.98 3.504-2.84l.035-.215h-1.004l-.03.15c-.197 1.064-.664 1.554-1.459 1.554-.902 0-1.333-.293-1.333-1.96v-8.795h5.195v6.546c0 2.708.192 3.527 1.035 4.37.8.772 2.038 1.19 3.479 1.19 1.662 0 2.995-.574 3.892-1.662v1.345h5.303v-.998h-2.087V26.401h-5.333v1.004h2.117v4.239c0 3.36-.132 4.352-.7 5.314-.538.897-1.554 1.459-2.654 1.459-.604 0-1.136-.173-1.387-.454-.389-.389-.454-.95-.454-4.012v-7.55h-8.406v-4.837h-.819l-.048.12c-.927 2.415-2.14 3.85-4.179 4.926l-.102.054v.741h1.931zm-9.453-17.481v1.004h2.117v19.454h-2.117v.998h7.42v-.998h-2.087V17.738zm-6.14 19.22c-.537.897-1.554 1.459-2.654 1.459-.604 0-1.13-.173-1.387-.454-.388-.389-.454-.95-.454-4.012v-7.55h-5.333v1.004h2.123v6.546c0 2.708.19 3.527 1.034 4.37.8.771 2.038 1.19 3.48 1.19 1.661 0 3-.574 3.891-1.662v1.345h5.303v-.998h-2.087V26.401h-5.332v1.004h2.116v4.239c0 3.36-.125 4.352-.7 5.314m-21.336-4.083c0 3.54 2.912 6.636 6.223 6.636 2.547 0 4.263-1.41 5.393-4.448l.096-.251h-1.196l-.036.126c-.76 2.271-2.152 3.479-4.03 3.479-.878 0-1.607-.305-2.074-.849-.502-.622-.651-1.519-.651-3.838 0-5.141.627-6.546 2.911-6.546 1.028 0 1.997.496 1.997.807-.006.013-.036.04-.084.09-.424.532-.675 1.106-.675 1.542 0 1.017.663 1.734 1.608 1.734 1.016 0 1.674-.735 1.674-1.865 0-1.782-2.153-3.408-4.52-3.408-3.659 0-6.636 3.05-6.636 6.791m-.478 5.32h-2.087V26.401h-5.338v1.004h2.122v10.79h-2.122v1h7.425zm-5.745-18.03c0 1.1.872 1.955 1.984 1.955 1.065 0 1.955-.89 1.955-1.955 0-1.112-.884-1.985-2.014-1.985-1.118 0-1.925.837-1.925 1.985m-6.421 8.286c.287-.478.586-.7.693-.7.024 0 .102 0 .132.27.072 1.261.586 1.877 1.578 1.877 1.04 0 1.764-.735 1.764-1.794 0-1.171-.903-2.02-2.146-2.02-1.357 0-2.41.837-3.259 2.606V26.4h-5.338v1.005h2.122v10.79h-2.122v1h7.425v-1h-2.087V35.44c0-3.653.311-5.417 1.238-6.989m-14.54 18.186c-2.253 0-3.706-1.231-3.706-3.132 0-.88.281-1.543.963-2.278l.113.013c.742.078.742.078 1.806.078.191 0 .884-.012 1.644-.036.46 0 .86-.013 1.142-.024.143 0 .25-.012.31-.012.562 0 1.077-.018 1.346-.024.09-.011.15-.011.173-.011 1.339 0 1.584.382 1.584 1.142 0 2.397-2.361 4.274-5.374 4.274m1.638-13.116c-.257.478-.807.753-1.519.753-1.327 0-1.805-.418-1.805-2.786 0-4.101.263-4.4 1.871-4.4 1.44 0 1.776.275 1.776 3.007 0 2.284-.066 2.99-.323 3.426m-1.519-7.437c-2.947 0-5.177 1.997-5.177 4.639 0 1.393.568 2.505 1.835 3.563-1.787 1.232-2.654 2.529-2.654 3.964 0 1.309.7 2.283 1.99 2.792-1.368.573-2.116 1.554-2.116 2.803 0 2.182 2.673 3.952 5.967 3.952 3.922 0 6.761-2.553 6.761-6.068 0-2.589-1.088-3.599-3.886-3.599l-5.278.065c-1.519 0-1.806-.347-1.806-.986 0-.73.676-1.555 1.949-2.38.837.377 1.357.478 2.415.478 2.977 0 5.213-1.919 5.213-4.453 0-1.07-.287-1.967-.926-2.894.293-.305.37-.335.496-.335.024 0 .095 0 .161.353.18.909.766 1.1 1.226 1.1.783 0 1.357-.598 1.357-1.417 0-.926-.7-1.578-1.704-1.578-.723 0-1.399.365-2.224 1.226-.938-.814-2.146-1.226-3.599-1.226m-20.32 5.326 2.708-8 2.69 8zm.4 6.797h-2.678l1.931-5.8h6.086l1.931 5.8h-2.678v.998h8.937v-.998H90.72l-6.828-20.458h-1.207l-7.15 20.458h-1.572v.998h5.494zm75.614-27.518h1.172V4.64h1.632v-.945h-1.632v-.227c0-.55.107-.927.323-1.124.209-.191.55-.293.998-.293.203 0 .425.03.652.084l.066.018v-.962l-.048-.012a5.706 5.706 0 0 0-.987-.095c-.592 0-1.106.16-1.518.484-.413.323-.634 1.034-.658 2.122h-1.171v.945h1.171zm-4.591-.801c-.52 0-.963-.21-1.321-.622-.353-.419-.538-1.124-.538-2.098 0-.927.185-1.609.538-2.033.358-.419.795-.628 1.309-.628.502 0 .944.21 1.315.628.377.412.568 1.1.568 2.038 0 .927-.185 1.627-.538 2.063-.359.436-.807.652-1.333.652m-.078.992c.945 0 1.728-.347 2.326-1.034.598-.688.902-1.584.902-2.667 0-1.04-.28-1.919-.837-2.612-.556-.7-1.327-1.052-2.283-1.052a2.94 2.94 0 0 0-2.26.998c-.598.664-.903 1.56-.903 2.66 0 1.04.27 1.931.801 2.637.538.711 1.298 1.07 2.254 1.07m-9.733-2.14c0 1.423.688 2.14 2.045 2.14.275 0 .61-.024.986-.078l.048-.012v-.95l-.06.013c-.305.048-.58.07-.825.07-.705 0-1.052-.328-1.052-1.01V4.634h1.543v-.945h-1.543v-1.83l-1.094.103-.048 1.727h-1.22v.945h1.22zm-6.319-1.877c0-.694.18-1.262.538-1.686.36-.425.807-.64 1.334-.64.382 0 .711.126.974.377.263.25.4.687.4 1.303v4.472h1.107v-4.03c0-.878-.072-1.476-.21-1.817-.137-.335-.388-.646-.759-.92-.365-.27-.819-.407-1.345-.407-.849 0-1.56.448-2.116 1.32V3.695h-1.1v6.983h1.177zm-7.419-.419c.054-.604.257-1.094.61-1.447a1.75 1.75 0 0 1 1.31-.562c.382 0 .71.108.986.305.269.21.466.46.58.748.113.28.173.597.185.956zm1.86 4.436c.723 0 1.357-.197 1.889-.586.532-.389.896-.89 1.082-1.489l.018-.054-1.094-.22-.018.042c-.353.885-.945 1.315-1.8 1.315-.472 0-.926-.173-1.35-.532-.413-.34-.629-1.022-.635-2.008h4.998v-.054c-.012-1.25-.305-2.2-.855-2.828-.556-.628-1.297-.95-2.206-.95-.926 0-1.71.346-2.313 1.028-.61.681-.92 1.59-.92 2.696 0 1.076.298 1.96.884 2.63.586.67 1.369 1.01 2.32 1.01m-12.68-4.358c0-.58.161-1.07.484-1.447.329-.377.711-.568 1.148-.568.305 0 .597.12.872.359s.419.657.419 1.243v4.58h1.142V6.75c0-.747.185-1.31.55-1.674.364-.365.753-.55 1.142-.55.28 0 .544.09.765.269.227.173.37.37.43.58.06.21.09.538.09.974v4.329h1.148V6.349c0-.633-.054-1.13-.162-1.482-.113-.359-.352-.676-.711-.95a2.022 2.022 0 0 0-1.261-.413c-.95 0-1.674.52-2.159 1.542a2.305 2.305 0 0 0-.64-1.046 1.862 1.862 0 0 0-1.297-.496c-.86 0-1.554.454-2.068 1.357V3.695h-1.022v6.983h1.13zm-5.07 2.218c0 1.423.687 2.14 2.05 2.14.276 0 .604-.024.987-.078l.042-.012v-.95l-.06.012c-.305.048-.58.071-.82.071-.71 0-1.051-.328-1.051-1.01V4.634h1.536v-.945h-1.536v-1.83l-1.1.103-.048 1.727h-1.22v.945h1.22zm-3.82-1.734c.03-.705.233-1.28.616-1.71.376-.424.86-.64 1.428-.64h.275V3.522h-.047a4.712 4.712 0 0 0-.43-.03c-.354 0-.712.113-1.053.346-.31.204-.616.634-.92 1.274V3.695h-1.04v6.982h1.17zm-6.277 2.947c-.46 0-.82-.113-1.059-.34a1.096 1.096 0 0 1-.358-.825c0-.515.22-.897.675-1.172.455-.27 1.112-.407 1.937-.407.221 0 .538.013.95.042.007.15.013.281.013.4a2.35 2.35 0 0 1-.61 1.615c-.4.454-.926.687-1.548.687m-1.764-2.97c-.597.46-.902 1.052-.902 1.757 0 .586.209 1.094.633 1.513.419.418 1.029.627 1.812.627 1.088 0 1.883-.436 2.373-1.297.036.508.072.867.108 1.064l.012.041h1.166l-.018-.065a6.025 6.025 0 0 1-.138-1.321V6.367c0-1.04-.209-1.787-.615-2.218-.407-.424-1.094-.645-2.05-.645-1.806 0-2.847.657-3.098 1.943l-.006.054 1.088.185.013-.048c.173-.807.777-1.196 1.841-1.196.43 0 .79.071 1.052.21.257.137.43.323.508.556.084.227.126.597.126 1.106a19.887 19.887 0 0 0-.861-.024c-1.423 0-2.445.227-3.043.681m-4.598-2.427c.514 0 .938.227 1.255.681.317.46.484 1.124.484 1.973 0 .987-.179 1.692-.532 2.087-.352.394-.753.592-1.201.592-.389 0-.772-.168-1.13-.49a2.02 2.02 0 0 1-.646-1.25V6.2a2.38 2.38 0 0 1 .658-1.178c.323-.317.7-.478 1.112-.478m-1.77 5.219c.496.735 1.16 1.106 1.985 1.106.819 0 1.494-.34 2.015-1.01.52-.664.783-1.573.783-2.703 0-1.046-.257-1.925-.76-2.612-.508-.688-1.177-1.04-2.008-1.04-.915 0-1.626.46-2.117 1.363V3.695h-1.07v9.308h1.172zm-7.413-3.33c.054-.604.257-1.094.604-1.447.359-.37.8-.562 1.315-.562.377 0 .711.108.98.305.276.21.467.46.586.748.108.28.174.597.186.956zm1.86 4.436c.717 0 1.356-.197 1.888-.586a2.87 2.87 0 0 0 1.082-1.489l.018-.054-1.094-.22-.018.042c-.352.885-.944 1.315-1.805 1.315-.472 0-.92-.173-1.345-.532-.419-.34-.628-1.022-.64-2.008h5.004l-.006-.054c-.012-1.25-.299-2.2-.849-2.828-.556-.628-1.297-.95-2.212-.95-.92 0-1.704.346-2.313 1.028-.61.681-.921 1.59-.921 2.696 0 1.076.299 1.96.89 2.63.587.67 1.364 1.01 2.32 1.01m-8.286-8.513c1.029 0 1.788.359 2.272 1.076a4.29 4.29 0 0 1 .73 2.44c0 1.111-.264 2.02-.766 2.701-.508.67-1.261 1.017-2.236 1.017h-1.835V2.356zm3.205 6.953c.711-.91 1.076-2.039 1.076-3.354 0-1.304-.37-2.415-1.106-3.318-.741-.903-1.782-1.357-3.103-1.357H75.87v9.398h3.55c1.113 0 2.033-.46 2.757-1.37M-.001 52.502V35.003l7.503 4.376v8.747zm15 8.752-7.497-4.376v-8.752l7.497-4.376 7.502 4.376v8.752zM30.004 70l-7.503-4.376v-8.746l7.503-4.376 7.497 4.376v8.746zm0-17.498-7.503-4.376v-8.747l7.503-4.376 7.497 4.376v8.747zM-.001 35.003V17.505l7.503 4.37v8.752zm15 8.747-7.497-4.37v-8.753l7.497-4.376 7.502 4.376v8.752zm0-17.499-7.497-4.376v-8.746l7.497-4.376 7.502 4.376v8.746z"/>
</svg>